# xmcd
#
# Track frame offsets: 
#        150
#        22875
#        42461
#        65472
#        89891
#        111062
#        134451
#        155673
#        161098
#        184218
#
# Disc length: 2673 seconds
#
# Revision: 5
# Processed by: cddbd v1.5.2PL0 Copyright (c) Steve Scherf et al.
# Submitted via: ExactAudioCopy v0.95b4
#
DISCID=8c0a6f0a
DTITLE=Anita Baker - My Everything
DYEAR=2004
DGENRE=R&B
TTITLE0=You're My Everything
TTITLE1=How Could You
TTITLE2=In My Heart
TTITLE3=Serious
TTITLE4=How Does It Feel
TTITLE5=Like You Used To
TTITLE6=Close Your Eyes
TTITLE7=You're My Everything Revisited
TTITLE8=I Can't Sleep
TTITLE9=Men In My Life
EXTD=YEAR: 2004
EXTT0=
EXTT1=
EXTT2=
EXTT3=
EXTT4=
EXTT5=
EXTT6=
EXTT7=
EXTT8=
EXTT9=
PLAYORDER=
